<svg width="104" height="97" viewBox="0 0 104 97" fill="none" xmlns="http://www.w3.org/2000/svg">
<path d="M49.7552 97C77.2342 97 99.5104 75.2858 99.5104 48.5C99.5104 21.7142 77.2342 0 49.7552 0C22.2762 0 0 21.7142 0 48.5C0 75.2858 22.2762 97 49.7552 97Z" fill="#4A5370"/>
<path d="M85.4132 82.3215C84.7573 82.9787 84.083 83.6162 83.3905 84.2357C83.3804 84.2456 83.3703 84.2535 83.36 84.2634C82.5659 84.9761 81.7477 85.661 80.9047 86.3203C79.7329 87.2408 78.5145 88.1099 77.2574 88.9234C77.1336 89.0045 77.0096 89.0837 76.8837 89.1628C69.0812 94.1197 59.7637 97 49.7559 97C49.5751 97 49.3925 96.9981 49.2117 96.996H49.0898C48.1149 96.9841 47.1484 96.9445 46.1877 96.8753C45.2738 96.8139 44.3681 96.7268 43.4685 96.616C43.2206 96.5862 42.9728 96.5546 42.7272 96.519C41.9128 96.4081 41.1045 96.2755 40.3043 96.1251C39.825 96.036 39.3479 95.939 38.8725 95.836C38.8501 95.832 38.8299 95.8261 38.8076 95.8221H38.8056C38.1598 95.6816 37.5202 95.5272 36.8844 95.3608L36.4335 95.242C35.8364 95.0818 35.2454 94.9095 34.6586 94.7254C34.4697 94.668 34.2829 94.6087 34.094 94.5473C33.8931 94.484 33.694 94.4187 33.495 94.3493C33.2087 94.2542 32.9223 94.1553 32.6381 94.0525C32.3355 93.9435 32.035 93.8327 31.7343 93.72L4.03808 29.3356L0.177368 20.364L14.1048 14.6707L49.9957 0H49.9977L52.4672 5.73894L54.1894 9.74361L55.1073 11.8757L56.4964 15.1065L56.8884 16.0191L58.2897 19.2735L71.4557 49.88L71.7929 50.6639L78.4397 66.1128L79.0937 67.631V67.6329L82.9422 76.5767L85.4132 82.3215Z" fill="#43C970"/>
<path d="M80.905 86.3203C79.7332 87.2408 78.5148 88.1099 77.2577 88.9234C77.1339 89.0045 77.0099 89.0837 76.884 89.1628C69.0815 94.1197 59.764 97 49.7562 97C49.5754 97 49.3927 96.9981 49.212 96.996H49.0901C48.1152 96.9841 47.1487 96.9445 46.188 96.8753C45.2741 96.8139 44.3684 96.7268 43.4687 96.616C43.2209 96.5862 42.9731 96.5546 42.7275 96.519C41.9131 96.4081 41.1048 96.2755 40.3046 96.1251C39.8253 96.036 39.3482 95.939 38.8728 95.836L32.6382 81.3454L11.3409 31.8398C12.1512 31.4914 12.8865 31.046 13.5383 30.5233C13.9364 30.2025 14.3039 29.8541 14.637 29.4781C16.022 27.9359 16.8405 25.9741 16.9563 23.9273C17.0315 22.5812 16.8039 21.1993 16.2333 19.871L29.8968 14.2865L35.4795 12.004L38.2211 10.8835C38.3307 11.1389 38.4526 11.3883 38.5826 11.6298C39.1999 12.7701 40.0366 13.7362 41.0175 14.5021C41.7629 15.0841 42.5893 15.5473 43.4687 15.8838C43.8425 16.0284 44.2262 16.149 44.6182 16.246C44.9289 16.3233 45.2436 16.3826 45.5626 16.4262C47.1872 16.6617 48.8952 16.4817 50.5198 15.8283C50.5362 15.8224 50.5523 15.8145 50.5686 15.8086L50.5746 15.8224L54.5063 24.9641L64.3374 47.8126L64.7213 48.7035L65.826 51.273L71.2301 63.8296C71.2301 63.8315 71.2301 63.8315 71.2301 63.8315L75.6127 74.0205L78.3137 80.2958L80.905 86.3203Z" fill="#3AB760"/>
<path d="M46.7334 76.3221C55.6987 76.3221 62.9665 69.2376 62.9665 60.4985C62.9665 51.7594 55.6987 44.6749 46.7334 44.6749C37.7681 44.6749 30.5003 51.7594 30.5003 60.4985C30.5003 69.2376 37.7681 76.3221 46.7334 76.3221Z" fill="#53D37A"/>
<path d="M88.0352 79.4808C87.6941 79.8826 87.3468 80.2765 86.9893 80.6666C86.4795 81.2308 85.9517 81.783 85.4135 82.3215C84.7575 82.9787 84.0833 83.6162 83.3908 84.2357C83.3807 84.2456 83.3706 84.2535 83.3603 84.2634C82.5662 84.9761 81.7479 85.661 80.905 86.3203C79.7332 87.2408 78.5148 88.1099 77.2577 88.9234C77.1339 89.0045 77.0099 89.0837 76.8839 89.1629C69.0815 94.1197 59.764 97 49.7562 97C49.5754 97 49.3927 96.9981 49.212 96.996H49.0901C48.1152 96.9841 47.1487 96.9445 46.188 96.8753C45.2741 96.8139 44.3684 96.7268 43.4687 96.616C43.2209 96.5862 42.9731 96.5546 42.7274 96.519C41.9131 96.4081 41.1048 96.2755 40.3046 96.1251C39.8253 96.036 39.3482 95.939 38.8728 95.836C38.8504 95.832 38.8302 95.8261 38.8078 95.8222H38.8059C38.1601 95.6816 37.5204 95.5272 36.8847 95.3608L36.4338 95.242L32.6382 81.3452L16.9563 23.9274L14.6675 15.5479L52.4673 5.73892L65.2859 2.41116L66.872 1.99948L67.1583 3.05057L68.5149 8.0135L69.5689 11.8757L71.0981 17.472L71.4575 18.7845L81.2338 54.5835L85.795 71.2854L85.858 71.515L88.0352 79.4808Z" fill="#43C970"/>
<path d="M83.3907 84.2357C83.3806 84.2456 83.3705 84.2535 83.3602 84.2634C82.566 84.9761 81.7478 85.661 80.9049 86.3203C79.7331 87.2409 78.5146 88.1099 77.2575 88.9234C77.1337 89.0045 77.0097 89.0837 76.8838 89.1629C69.0813 94.1197 59.7639 97 49.756 97C49.5753 97 49.3926 96.9981 49.2118 96.996H49.09C48.1151 96.9841 47.1485 96.9445 46.1878 96.8753C45.274 96.814 44.3682 96.7268 43.4686 96.616C43.2208 96.5862 42.973 96.5546 42.7273 96.519L38.2899 80.2744L36.1699 72.5165L31.4381 55.1951V55.1932L24.1209 28.4014C24.9718 28.1638 25.7619 27.8213 26.4808 27.3899C26.9195 27.1247 27.3338 26.8278 27.7155 26.501C29.3036 25.1568 30.3901 23.3218 30.7903 21.3084C31.0542 19.9861 31.0218 18.5866 30.642 17.1948L41.0175 14.5025L43.4688 13.8671L51.1412 11.8755L53.6818 11.2164C53.7427 11.4402 53.8119 11.6599 53.891 11.8757C54.3397 13.1386 55.0505 14.2513 55.9442 15.1737C56.2407 15.4767 56.5554 15.7597 56.8885 16.0191C57.6094 16.5833 58.4117 17.0425 59.2686 17.379C59.3499 17.4106 59.4331 17.4423 59.5164 17.472C61.2833 18.1133 63.2654 18.2461 65.2251 17.7372L74.3272 51.0618L74.6399 52.2059L78.4396 66.1126L78.9718 68.0566V68.0585L81.6605 77.907L83.3907 84.2357Z" fill="#3AB760"/>
<path d="M55.1694 77.3216C64.1347 77.3216 71.4025 70.2371 71.4025 61.498C71.4025 52.7589 64.1347 45.6745 55.1694 45.6745C46.2041 45.6745 38.9363 52.7589 38.9363 61.498C38.9363 70.2371 46.2041 77.3216 55.1694 77.3216Z" fill="#53D37A"/>
<path d="M91.9548 74.2051C91.8858 74.3119 91.8166 74.4188 91.7476 74.5238C90.6164 76.2538 89.3757 77.9089 88.0352 79.4806C87.6941 79.8825 87.3468 80.2763 86.9894 80.6664C86.4796 81.2306 85.9517 81.7829 85.4135 82.3213C84.7576 82.9785 84.0833 83.616 83.3908 84.2355C83.3807 84.2454 83.3706 84.2534 83.3603 84.2632C82.5662 84.9759 81.7479 85.6608 80.905 86.3201C79.7332 87.2407 78.5148 88.1097 77.2577 88.9232C77.1339 89.0043 77.0099 89.0835 76.884 89.1627C69.0815 94.1195 59.764 96.9998 49.7562 96.9998C49.5754 96.9998 49.3927 96.9979 49.212 96.9958H49.0901C48.1152 96.9839 47.1487 96.9443 46.188 96.8751C45.2741 96.8138 44.3684 96.7266 43.4687 96.6158C43.2209 96.586 42.9731 96.5544 42.7275 96.5188C41.9131 96.4079 41.1048 96.2753 40.3046 96.1249L38.2901 80.2742L37.4229 73.4624L34.4579 50.1388L30.7902 21.3079L29.8966 14.2863L29.6956 12.7027L35.4795 12.004L38.5826 11.6298L54.1895 9.74325L68.5149 8.01315L75.7528 7.13826L83.3096 6.22566L84.0285 11.8754L84.2398 13.5363L85.631 24.4756L91.7478 72.5798L91.9548 74.2051Z" fill="#43C970"/>
<path d="M86.9893 80.6666C86.4795 81.2308 85.9517 81.783 85.4135 82.3215C84.7575 82.9787 84.0833 83.6162 83.3908 84.2357C83.3807 84.2456 83.3706 84.2535 83.3603 84.2634C82.5662 84.9761 81.7479 85.661 80.905 86.3203C79.7332 87.2408 78.5148 88.1099 77.2577 88.9234C77.1339 89.0045 77.0099 89.0836 76.8839 89.1628C69.0815 94.1197 59.764 97 49.7562 97C49.5754 97 49.3927 96.9981 49.212 96.996H49.0901C48.1152 96.9841 47.1487 96.9445 46.188 96.8753L43.5358 76.0123L43.4687 75.4917L43.024 71.9978L40.7617 54.2111L39.7464 46.2155L37.2627 26.6927C38.1379 26.572 38.9686 26.3363 39.7423 26.0058C40.2134 25.8019 40.6643 25.5622 41.0888 25.289C42.0108 24.7031 42.8151 23.9648 43.4689 23.1154C44.066 22.3434 44.5392 21.4784 44.8621 20.5538C45.3067 19.279 45.4714 17.8873 45.2906 16.4601L45.5627 16.4264L50.52 15.8285L50.5748 15.8226L55.9443 15.1734L56.4967 15.1061L68.9516 13.6016C69.1343 15.0309 69.6422 16.3413 70.3977 17.4718C70.7084 17.943 71.0637 18.3804 71.4577 18.7843C72.0913 19.4397 72.8225 19.9999 73.6246 20.4493C75.3345 21.4054 77.3673 21.8508 79.4753 21.5955L84.0792 57.7944L85.7952 71.2854L85.8339 71.5844L86.9893 80.6666Z" fill="#3AB760"/>
<path d="M63.3882 79.4338C72.3535 79.4338 79.6213 72.3493 79.6213 63.6102C79.6213 54.8711 72.3535 47.7867 63.3882 47.7867C54.423 47.7867 47.1552 54.8711 47.1552 63.6102C47.1552 72.3493 54.423 79.4338 63.3882 79.4338Z" fill="#53D37A"/>
<path d="M97.4907 11.8756V62.2225C96.2011 66.4906 94.3267 70.5151 91.9546 74.2051C91.8856 74.312 91.8164 74.4188 91.7474 74.5238C90.6163 76.2539 89.3755 77.9089 88.035 79.4806C87.6939 79.8825 87.3466 80.2764 86.9892 80.6664C86.4794 81.2306 85.9515 81.7829 85.4133 82.3213C84.7574 82.9785 84.0832 83.616 83.3907 84.2356C83.3806 84.2454 83.3704 84.2534 83.3601 84.2632C82.566 84.9759 81.7478 85.6608 80.9048 86.3201C79.7331 87.2407 78.5146 88.1097 77.2575 88.9232C77.1337 89.0043 77.0097 89.0835 76.8838 89.1627C69.0813 94.1196 59.7638 96.9998 49.756 96.9998C49.5753 96.9998 49.3926 96.9979 49.2118 96.9959H49.09C48.1151 96.9839 47.1485 96.9443 46.1878 96.8752C45.2739 96.8138 44.3682 96.7266 43.4686 96.6158V11.8756H97.4907Z" fill="#53D37A"/>
<path d="M104 26.4069V74.2616C102.869 75.9917 101.628 77.6468 100.288 79.2185C99.9465 79.6203 99.5992 80.0142 99.2418 80.4043C98.732 80.9685 98.2041 81.5208 97.6659 82.0592C97.01 82.7164 96.3358 83.3539 95.6433 83.9734C95.6331 83.9833 95.623 83.9912 95.6127 84.0011C94.8186 84.7138 94.0004 85.3987 93.1574 86.058C91.9856 86.9785 90.7672 87.8476 89.5101 88.6611C89.3863 88.7422 89.2623 88.8214 89.1364 88.9005C81.3339 93.8574 72.0164 96.7377 62.0086 96.7377C61.8279 96.7377 61.6452 96.7358 61.4644 96.7337V71.0608L61.4625 55.6417V26.403C62.348 26.3891 63.2029 26.2544 64.0111 26.0168C64.5045 25.8723 64.9819 25.6881 65.4388 25.4686C65.9018 25.2488 66.3426 24.9915 66.7589 24.7024C68.0424 23.8116 69.0861 22.616 69.7808 21.2223C70.1259 20.5295 70.3838 19.7872 70.5422 19.0112C70.6581 18.4273 70.721 17.8254 70.721 17.2097H94.565C94.565 20.0148 95.8545 22.5269 97.8834 24.2134C98.0296 24.3362 98.1819 24.455 98.3363 24.5677C99.9139 25.7221 101.876 26.4069 104 26.4069Z" fill="#43C970"/>
<path d="M70.4799 82.2588C79.4451 82.2588 86.7129 75.1743 86.7129 66.4352C86.7129 57.6961 79.4451 50.6116 70.4799 50.6116C61.5146 50.6116 54.2468 57.6961 54.2468 66.4352C54.2468 75.1743 61.5146 82.2588 70.4799 82.2588Z" fill="#53D37A"/>
</svg>
